<?xml version="1.0" encoding="UTF-8" standalone="no"?>
<!-- Created with Inkscape (http://www.inkscape.org/) -->

<svg
   xmlns:dc="http://purl.org/dc/elements/1.1/"
   xmlns:cc="http://creativecommons.org/ns#"
   xmlns:rdf="http://www.w3.org/1999/02/22-rdf-syntax-ns#"
   xmlns:svg="http://www.w3.org/2000/svg"
   xmlns="http://www.w3.org/2000/svg"
   xmlns:sodipodi="http://sodipodi.sourceforge.net/DTD/sodipodi-0.dtd"
   xmlns:inkscape="http://www.inkscape.org/namespaces/inkscape"
   version="1.1"
   id="svg4518"
   xml:space="preserve"
   width="136"
   height="136"
   viewBox="0 0 136 136"
   sodipodi:docname="logo_cloud_icon.svg"
   inkscape:version="0.92.3 (2405546, 2018-03-11)"><metadata
     id="metadata4524"><rdf:RDF><cc:Work
         rdf:about=""><dc:format>image/svg+xml</dc:format><dc:type
           rdf:resource="http://purl.org/dc/dcmitype/StillImage" /><dc:title></dc:title></cc:Work></rdf:RDF></metadata><defs
     id="defs4522"><clipPath
       clipPathUnits="userSpaceOnUse"
       id="clipPath4534"><path
         d="M 0,0 H 102 V 102 H 0 Z"
         id="path4532"
         inkscape:connector-curvature="0" /></clipPath></defs><sodipodi:namedview
     pagecolor="#ffffff"
     bordercolor="#666666"
     borderopacity="1"
     objecttolerance="10"
     gridtolerance="10"
     guidetolerance="10"
     inkscape:pageopacity="0"
     inkscape:pageshadow="2"
     inkscape:window-width="2560"
     inkscape:window-height="1377"
     id="namedview4520"
     showgrid="false"
     inkscape:zoom="8.8823529"
     inkscape:cx="68"
     inkscape:cy="68"
     inkscape:window-x="-8"
     inkscape:window-y="-8"
     inkscape:window-maximized="1"
     inkscape:current-layer="g4530" /><g
     id="g4526"
     inkscape:groupmode="layer"
     inkscape:label="logo_cloud_icon"
     transform="matrix(1.3333333,0,0,-1.3333333,0,136)"><g
       id="g4528"><g
         id="g4530"
         clip-path="url(#clipPath4534)"><g
           id="g4536"
           transform="translate(64.3396,69.6628)"><path
             d="m 0,0 3.129,-0.059 8.505,8.506 0.415,3.602 c -6.757,6.013 -15.651,9.674 -25.389,9.674 -17.632,0 -32.501,-11.991 -36.911,-28.246 0.93,0.642 2.911,0.164 2.911,0.164 l 17,2.795 c 0,0 0.882,1.444 1.313,1.354 3.888,4.255 9.483,6.933 15.687,6.933 C -8.293,4.723 -3.649,2.948 0,0"
             style="fill:#ea4335;fill-opacity:1;fill-rule:nonzero;stroke:none"
             id="path4538"
             inkscape:connector-curvature="0" /></g><g
           id="g4540"
           transform="translate(87.9216,63.1179)"><path
             d="M 0,0 C -1.971,7.289 -6.051,13.717 -11.539,18.599 L -23.587,6.55 c 4.823,-3.9 7.915,-9.86 7.915,-16.532 v -2.125 c 5.86,0 10.625,-4.766 10.625,-10.625 0,-5.86 -4.765,-10.625 -10.625,-10.625 h -21.25 l -2.125,-2.136 v -12.75 l 2.125,-2.114 h 21.25 c 15.231,0 27.625,12.394 27.625,27.625 C 11.953,-13.313 7.215,-4.988 0,0"
             style="fill:#4285f4;fill-opacity:1;fill-rule:nonzero;stroke:none"
             id="path4542"
             inkscape:connector-curvature="0" /></g><g
           id="g4544"
           transform="translate(29.7498,12.7605)"><path
             d="M 0,0 H 21.234 V 17 H 0 c -1.562,0 -3.039,0.346 -4.377,0.956 l -3.06,-0.94 -8.511,-8.51 -0.743,-2.874 C -12.054,2.104 -6.269,0 0,0"
             style="fill:#34a853;fill-opacity:1;fill-rule:nonzero;stroke:none"
             id="path4546"
             inkscape:connector-curvature="0" /></g><g
           id="g4548"
           transform="translate(29.7498,68.0105)"><path
             d="m 0,0 c -15.23,0 -27.625,-12.394 -27.625,-27.625 0,-8.968 4.298,-16.952 10.944,-21.999 l 12.32,12.319 c -3.687,1.669 -6.264,5.377 -6.264,9.68 0,5.859 4.766,10.625 10.625,10.625 4.303,0 8.012,-2.576 9.68,-6.264 L 22,-10.943 C 16.953,-4.298 8.968,0 0,0"
             style="fill:#fbbc05;fill-opacity:1;fill-rule:nonzero;stroke:none"
             id="path4550"
             inkscape:connector-curvature="0" /></g></g></g></g></svg>